<svg width="12" height="18" viewBox="0 0 12 18" fill="none" xmlns="http://www.w3.org/2000/svg">
<g id="ETH">
<g id="eth">
<path id="Shape" d="M6.02697 0.0975238V0.106391C6.03583 0.150726 6.03583 0.203928 6.03583 0.25713V6.65023C6.02697 6.6857 6.00037 6.69457 5.97376 6.7123C5.78756 6.80097 5.61022 6.88078 5.42401 6.96058C5.16687 7.07585 4.90086 7.19999 4.64372 7.31526L3.71268 7.74087C3.45554 7.85615 3.19839 7.97142 2.95012 8.08669C2.64864 8.22856 2.3383 8.36156 2.03682 8.50344C1.77968 8.61871 1.52253 8.74284 1.25652 8.85812C1.04372 8.95565 0.830907 9.04432 0.626966 9.14186C0.609232 9.15073 0.591498 9.15959 0.573764 9.15959C0.564897 9.15959 0.564897 9.15959 0.55603 9.15073L0.795439 8.75171C1.25652 7.98915 1.70874 7.23546 2.16982 6.47289C2.65751 5.65713 3.15406 4.84137 3.64174 4.0256C4.09396 3.27191 4.55505 2.51821 5.00726 1.76452C5.33534 1.21477 5.67229 0.665012 6.00037 0.115258C6.00923 0.0975238 6.0181 0.0886568 6.0181 0.0709229H6.02697C6.0181 0.0797898 6.02697 0.0886568 6.02697 0.0975238Z" fill="#8A92B2"/>
<path id="Shape_2" d="M11.4709 9.15077L11.4797 9.15963L10.1763 9.93106L6.07973 12.3518C6.06199 12.3606 6.04426 12.3695 6.03539 12.3784C6.00879 12.3784 6.00879 12.3518 6.00879 12.3429V12.2631V6.78328C6.00879 6.75668 6.00879 6.72121 6.01766 6.69461C6.02652 6.65914 6.05312 6.66801 6.07973 6.67688C6.195 6.73008 6.31913 6.78328 6.4344 6.83648C6.78022 6.99609 7.12603 7.15569 7.47184 7.30643C7.77332 7.43944 8.06593 7.58131 8.36741 7.71431C8.66889 7.84732 8.97037 7.98919 9.27184 8.1222C9.52899 8.23747 9.795 8.36161 10.0521 8.47688C10.3093 8.59215 10.5753 8.71628 10.8324 8.83156C11.0364 8.92023 11.2403 9.01776 11.4443 9.10643C11.4443 9.13303 11.4531 9.1419 11.4709 9.15077Z" fill="#454A75"/>
<path id="Shape_3" d="M6.0266 17.8847C6.0266 17.8935 6.01773 17.9024 6.01773 17.9113H6.00887C6.00887 17.8935 5.99113 17.8847 5.98227 17.8669C5.43251 17.0955 4.88276 16.3152 4.333 15.5438C3.77438 14.7546 3.2069 13.9566 2.64828 13.1674C2.10739 12.4049 1.55763 11.6334 1.01675 10.8709C0.874876 10.6669 0.733004 10.4719 0.591132 10.2679C0.582265 10.2502 0.573398 10.2413 0.555664 10.2147C0.582265 10.2147 0.599999 10.2325 0.608866 10.2413C1.38029 10.6935 2.14286 11.1458 2.91428 11.598C3.80098 12.1211 4.67882 12.6443 5.56552 13.1674L6.01773 13.4334C6.03547 13.4512 6.03547 13.4689 6.03547 13.4866V17.7605C6.03547 17.8049 6.03547 17.8492 6.0266 17.8847Z" fill="#8A92B2"/>
<path id="Path" d="M0.546753 9.16846V9.15959C0.830497 9.03546 1.10537 8.90245 1.38912 8.77831C1.75266 8.60984 2.11621 8.45024 2.47976 8.28176C2.75463 8.15762 3.03838 8.02462 3.31326 7.90048C3.72114 7.71427 4.12015 7.53693 4.52803 7.35073C4.80291 7.22659 5.07779 7.10245 5.36153 6.96945C5.5566 6.88078 5.76055 6.79211 5.95562 6.70344C5.97335 6.69457 5.99995 6.6857 6.00882 6.66797C6.01769 6.66797 6.01769 6.67684 6.00882 6.6857V12.3162C6.00882 12.3428 5.99995 12.3694 6.01769 12.3872C5.99995 12.4138 5.98222 12.3872 5.97335 12.3783C5.89355 12.334 5.81375 12.2896 5.73394 12.2364C4.02261 11.2256 2.30242 10.2059 0.591088 9.19506C0.582221 9.1862 0.564487 9.17733 0.546753 9.16846Z" fill="#62688F"/>
<path id="Path_2" d="M11.4532 10.2147H11.462C11.462 10.2325 11.4443 10.2502 11.4354 10.2679C9.80391 12.5645 8.17238 14.8699 6.54085 17.1664C6.37238 17.4059 6.19504 17.6453 6.02657 17.8847C6.0177 17.8758 6.0177 17.8669 6.0177 17.8581V17.8049V13.5044V13.4246C6.39011 13.2029 6.75366 12.9901 7.12607 12.7684C8.56253 11.9172 9.99898 11.0748 11.4266 10.2236C11.4354 10.2325 11.4443 10.2236 11.4532 10.2147Z" fill="#62688F"/>
<path id="Shape_4" d="M6.01773 6.68576V6.66802V6.61482V0.177381C6.01773 0.15078 6.00887 0.133046 6.0266 0.106445C7.8266 3.09462 9.6266 6.07393 11.4177 9.06211C11.4355 9.08871 11.4621 9.12418 11.4709 9.15965C11.3468 9.11531 11.2315 9.05324 11.1163 9.00004C10.9744 8.93797 10.8236 8.86704 10.6818 8.80497C10.5931 8.76063 10.4956 8.72516 10.4069 8.68083C10.2562 8.60989 10.1054 8.54782 9.95468 8.47689C9.86601 8.44142 9.77734 8.39709 9.68867 8.35275L9.10345 8.08674C9.00591 8.04241 8.90838 7.99807 8.80197 7.95374L8.37636 7.76753C8.28769 7.73206 8.19902 7.68773 8.11035 7.64339L7.52512 7.37738C7.42759 7.33305 7.33005 7.28871 7.22365 7.24438L6.79803 7.05817C6.70049 7.01383 6.61182 6.9695 6.51429 6.92516C6.34581 6.84536 6.17734 6.76556 6 6.69462C6.0266 6.68576 6.01773 6.68576 6.01773 6.68576Z" fill="#62688F"/>
</g>
</g>
</svg>
