<svg width="20" height="24" viewBox="0 0 20 24" fill="none" xmlns="http://www.w3.org/2000/svg">
<g id="Group 36648">
<path id="Vector" d="M13.8667 4.80017H2.13333C0.955126 4.80017 0 5.94632 0 7.36017V21.4402C0 22.854 0.955126 24.0002 2.13333 24.0002H13.8667C15.0449 24.0002 16 22.854 16 21.4402V7.36017C16 5.94632 15.0449 4.80017 13.8667 4.80017Z" fill="#0997FF"/>
<path id="Vector_2" d="M17.8667 0H6.13333C5.56808 0.00210983 5.02648 0.272501 4.62678 0.752137C4.22708 1.23177 4.00176 1.88169 4 2.56V4H14.3533C14.9663 4.00211 15.5537 4.29526 15.9872 4.8154C16.4206 5.33555 16.6649 6.04041 16.6667 6.776V19.2H17.8667C18.4319 19.1979 18.9735 18.9275 19.3732 18.4479C19.7729 17.9682 19.9982 17.3183 20 16.64V2.56C19.9982 1.88169 19.7729 1.23177 19.3732 0.752137C18.9735 0.272501 18.4319 0.00210983 17.8667 0Z" fill="#0997FF" fill-opacity="0.4"/>
</g>
</svg>
