<svg width="36" height="36" viewBox="0 0 36 36" fill="none" xmlns="http://www.w3.org/2000/svg">
<g id="Iconly/Bulk/Plus">
<g id="Plus">
<path id="Path_34200" opacity="0.4" d="M25 3H11C5.89333 3 3 5.89333 3 11V25C3 30.0933 5.88 33 11 33H25C30.1067 33 33 30.0933 33 25V11C33 5.89333 30.1067 3 25 3Z" fill="white"/>
<path id="Path_34201" d="M22.9807 19.0625H19.1243V22.8855C19.1243 23.501 18.6209 24 18 24C17.3791 24 16.8757 23.501 16.8757 22.8855V19.0625H13.0193C12.4401 19.003 12 18.5192 12 17.942C12 17.3647 12.4401 16.8809 13.0193 16.8215H16.8636V13.0105C16.9236 12.4363 17.4117 12 17.994 12C18.5762 12 19.0643 12.4363 19.1243 13.0105V16.8215H22.9807C23.5599 16.8809 24 17.3647 24 17.942C24 18.5192 23.5599 19.003 22.9807 19.0625Z" fill="white"/>
</g>
</g>
</svg>
